<?xml version="1.0" standalone="no"?>
<!DOCTYPE svg PUBLIC "-//W3C//DTD SVG 20010904//EN"
 "http://www.w3.org/TR/2001/REC-SVG-20010904/DTD/svg10.dtd">
<svg version="1.0" xmlns="http://www.w3.org/2000/svg"
 width="177.000000pt" height="177.000000pt" viewBox="0 0 177.000000 177.000000"
 preserveAspectRatio="xMidYMid meet">
<metadata>
Created by potrace 1.11, written by Peter Selinger 2001-2013
</metadata>
<g transform="translate(0.000000,177.000000) scale(0.100000,-0.100000)"
fill="#000000" stroke="none">
<path d="M928 1755 c-3 -4 -28 -9 -55 -11 -50 -5 -97 -30 -147 -80 -31 -31
-86 -143 -86 -175 0 -11 -5 -16 -13 -13 -37 14 -57 -136 -29 -219 14 -45 14
-54 -3 -124 -9 -42 -30 -103 -45 -137 -15 -34 -30 -69 -34 -79 -3 -9 -15 -21
-26 -25 -36 -13 -119 -103 -145 -156 -28 -57 -65 -179 -65 -214 0 -12 -10 -30
-21 -40 -48 -39 -50 -43 -44 -88 3 -24 8 -50 11 -58 4 -10 -3 -17 -20 -22 -36
-9 -46 -25 -51 -84 -3 -38 -11 -57 -27 -70 -13 -11 -26 -19 -29 -20 -5 0 -21
-76 -23 -114 -1 -5 16 -10 37 -11 37 -1 57 20 43 44 -4 5 3 12 14 16 11 3 38
22 61 41 22 19 44 34 48 34 8 0 47 -83 53 -110 2 -8 6 -17 10 -20 3 -3 73 -5
155 -4 97 0 151 -3 155 -10 5 -7 8 -7 8 -1 0 8 162 11 513 10 281 0 515 1 520
3 4 2 -2 11 -14 21 -12 10 -24 29 -26 42 -2 13 -7 27 -11 31 -5 5 -5 34 -1 66
5 42 15 71 38 102 33 46 43 110 18 110 -21 0 -53 32 -62 60 -23 76 -99 211
-151 269 -56 61 -185 161 -209 161 -8 0 -11 41 -10 148 1 128 5 154 25 202 22
55 34 177 19 210 -87 196 -132 255 -226 290 -62 23 -144 36 -155 25z"/>
</g>
</svg>
